<?xml version="1.0" encoding="UTF-8"?>
<svg id="Layer_1" xmlns="http://www.w3.org/2000/svg" version="1.1" xmlns:xlink="http://www.w3.org/1999/xlink" viewBox="0 0 526.31 584.31">
  <!-- Generator: Adobe Illustrator 29.7.1, SVG Export Plug-In . SVG Version: 2.1.1 Build 8)  -->
  <defs>
    <style>
      .st0 {
        fill: url(#linear-gradient1);
      }

      .st1 {
        fill: url(#linear-gradient);
      }
    </style>
    <linearGradient id="linear-gradient" x1="3.54" y1="31.17" x2="343.09" y2="421.86" gradientUnits="userSpaceOnUse">
      <stop offset="0" stop-color="#00adea"/>
      <stop offset="1" stop-color="#7534bd"/>
    </linearGradient>
    <linearGradient id="linear-gradient1" x1="-7.76" y1="41" x2="331.79" y2="431.68" xlink:href="#linear-gradient"/>
  </defs>
  <path class="st1" d="M240.03,341.82c3.37,10.98,13.75,18.88,25.24,19.19,9.13.26,17.5-3.71,22.94-10.87,5.44-7.16,7.02-16.27,4.34-25.01-3.38-10.99-13.76-18.88-25.25-19.19-9.08-.21-17.49,3.72-22.93,10.87-5.44,7.16-7.02,16.27-4.34,25Z"/>
  <path class="st0" d="M451.97,300.19c4.3-.59,8.01-2.9,10.43-6.51,2.41-3.6,3.16-8.08,2.06-12.28-17.24-65.78-66.04-118.6-130.56-141.28l-4.72-1.66-.54-4.97c-5.44-49.91-48.43-87.55-100-87.55H77.07c-8.66,0-15.71,7.05-15.71,15.71s7.05,15.71,15.71,15.71h83.28v80.73l-3.67,2.34c-18.89,12.04-35.64,27.04-49.78,44.6l-14.12,17.54v-66.33c0-8.66-7.05-15.71-15.71-15.71s-15.71,7.05-15.71,15.71v299.47h40.49l2.38,3.07c38.79,49.99,99.17,79.61,161.96,79.61.96,0,1.91,0,2.87-.02,4.35-.06,8.46-1.98,11.28-5.26,2.84-3.3,4.08-7.48,3.49-11.79l-.19-1.4c-1.01-7.42-7.58-12.96-15.32-12.96-.06,0-.12,0-.19,0-39.1.48-77.79-12.71-108.85-37.06l-18.1-14.19h110.76c30.6,0,60.11-11.05,83.1-31.11,23.13-20.18,37.61-47.8,40.77-77.78,5.47-51.89-22.5-101.65-69.62-123.81l-9.7-4.57,7.2-7.95c8.52-9.4,15.07-20.23,19.47-32.17l2.88-7.82,7.67,3.25c49.15,20.85,86.6,63.9,100.19,115.15,2.01,7.56,9.15,12.49,16.64,11.48l1.39-.19ZM160.36,424.28h-41.89l-2.29-3.95c-13.49-23.26-21.23-48.75-23.01-75.77-3.36-51.05,16.24-100.88,53.77-136.7l13.42-12.81v229.23ZM321.42,272.49c17.4,19.07,25.68,43.77,23.32,69.57-4.22,46.11-44.73,82.23-92.23,82.23h-60.73v-247.5l4.73-2.09c11.07-4.89,22.56-8.59,34.17-11,18.05-3.75,36.46-4.63,54.73-2.6l10.93,1.21-4.59,9.99c-8.06,17.56-23.27,30.81-41.72,36.35-6.76,2.03-11.3,8.08-11.3,15.05v3.48c0,8.66,7.05,15.71,15.71,15.71,25.4,0,49.82,10.79,66.99,29.61ZM284.54,129.4c-20.43-1.82-41.1-.55-61.43,3.79-6.97,1.49-14.01,3.4-20.92,5.67l-10.42,3.42v-64.92h37.41c27.34,0,52.8,16.48,63.35,41l5.26,12.23-13.26-1.19Z"/>
</svg>